<mxfile host="app.diagrams.net" modified="2023-05-15T18:06:13.096Z" agent="Mozilla/5.0 (Windows NT 10.0; Win64; x64) AppleWebKit/537.36 (KHTML, like Gecko) Chrome/113.0.0.0 Safari/537.36" etag="oHu0Z29YDuJq9dIQj2Y-" version="21.3.2" type="device">
  <diagram name="PÃ¡gina-1" id="GCbYcqBKKe0wzO94mC0z">
    <mxGraphModel dx="1050" dy="579" grid="1" gridSize="10" guides="1" tooltips="1" connect="1" arrows="1" fold="1" page="1" pageScale="1" pageWidth="1169" pageHeight="827" math="0" shadow="0">
      <root>
        <mxCell id="0" />
        <mxCell id="1" parent="0" />
        <mxCell id="VB0gRTYkaDnp8AODcOtn-3" style="edgeStyle=orthogonalEdgeStyle;rounded=0;orthogonalLoop=1;jettySize=auto;html=1;endArrow=none;endFill=0;startArrow=classic;startFill=1;" edge="1" parent="1" source="VB0gRTYkaDnp8AODcOtn-1">
          <mxGeometry relative="1" as="geometry">
            <mxPoint x="160" y="190" as="targetPoint" />
          </mxGeometry>
        </mxCell>
        <mxCell id="VB0gRTYkaDnp8AODcOtn-36" style="edgeStyle=orthogonalEdgeStyle;rounded=0;orthogonalLoop=1;jettySize=auto;html=1;" edge="1" parent="1" source="VB0gRTYkaDnp8AODcOtn-1" target="VB0gRTYkaDnp8AODcOtn-29">
          <mxGeometry relative="1" as="geometry">
            <Array as="points">
              <mxPoint x="230" y="260" />
              <mxPoint x="570" y="260" />
            </Array>
          </mxGeometry>
        </mxCell>
        <mxCell id="VB0gRTYkaDnp8AODcOtn-38" style="edgeStyle=orthogonalEdgeStyle;rounded=0;orthogonalLoop=1;jettySize=auto;html=1;" edge="1" parent="1" source="VB0gRTYkaDnp8AODcOtn-1" target="VB0gRTYkaDnp8AODcOtn-34">
          <mxGeometry relative="1" as="geometry">
            <Array as="points">
              <mxPoint x="230" y="130" />
            </Array>
          </mxGeometry>
        </mxCell>
        <mxCell id="VB0gRTYkaDnp8AODcOtn-1" value="Inicio" style="ellipse;whiteSpace=wrap;html=1;" vertex="1" parent="1">
          <mxGeometry x="190" y="150" width="80" height="80" as="geometry" />
        </mxCell>
        <mxCell id="VB0gRTYkaDnp8AODcOtn-60" style="edgeStyle=orthogonalEdgeStyle;rounded=0;orthogonalLoop=1;jettySize=auto;html=1;" edge="1" parent="1" source="VB0gRTYkaDnp8AODcOtn-27" target="VB0gRTYkaDnp8AODcOtn-34">
          <mxGeometry relative="1" as="geometry">
            <Array as="points">
              <mxPoint x="488" y="190" />
              <mxPoint x="488" y="140" />
            </Array>
          </mxGeometry>
        </mxCell>
        <mxCell id="VB0gRTYkaDnp8AODcOtn-27" value="" style="ellipse;whiteSpace=wrap;html=1;" vertex="1" parent="1">
          <mxGeometry x="545" y="150" width="80" height="80" as="geometry" />
        </mxCell>
        <mxCell id="VB0gRTYkaDnp8AODcOtn-54" style="edgeStyle=orthogonalEdgeStyle;rounded=0;orthogonalLoop=1;jettySize=auto;html=1;" edge="1" parent="1" source="VB0gRTYkaDnp8AODcOtn-29" target="VB0gRTYkaDnp8AODcOtn-33">
          <mxGeometry relative="1" as="geometry">
            <Array as="points">
              <mxPoint x="460" y="340" />
              <mxPoint x="460" y="340" />
            </Array>
          </mxGeometry>
        </mxCell>
        <mxCell id="VB0gRTYkaDnp8AODcOtn-56" style="edgeStyle=orthogonalEdgeStyle;rounded=0;orthogonalLoop=1;jettySize=auto;html=1;entryX=0.753;entryY=0.907;entryDx=0;entryDy=0;entryPerimeter=0;" edge="1" parent="1" source="VB0gRTYkaDnp8AODcOtn-29" target="VB0gRTYkaDnp8AODcOtn-27">
          <mxGeometry relative="1" as="geometry">
            <Array as="points">
              <mxPoint x="605" y="280" />
              <mxPoint x="605" y="280" />
            </Array>
          </mxGeometry>
        </mxCell>
        <mxCell id="VB0gRTYkaDnp8AODcOtn-29" value="" style="ellipse;whiteSpace=wrap;html=1;" vertex="1" parent="1">
          <mxGeometry x="545" y="300" width="80" height="80" as="geometry" />
        </mxCell>
        <mxCell id="VB0gRTYkaDnp8AODcOtn-46" style="edgeStyle=orthogonalEdgeStyle;rounded=0;orthogonalLoop=1;jettySize=auto;html=1;entryX=0.063;entryY=0.625;entryDx=0;entryDy=0;entryPerimeter=0;" edge="1" parent="1" source="VB0gRTYkaDnp8AODcOtn-33" target="VB0gRTYkaDnp8AODcOtn-29">
          <mxGeometry relative="1" as="geometry" />
        </mxCell>
        <mxCell id="VB0gRTYkaDnp8AODcOtn-50" style="edgeStyle=orthogonalEdgeStyle;rounded=0;orthogonalLoop=1;jettySize=auto;html=1;entryX=0.26;entryY=0.977;entryDx=0;entryDy=0;entryPerimeter=0;" edge="1" parent="1" source="VB0gRTYkaDnp8AODcOtn-33" target="VB0gRTYkaDnp8AODcOtn-34">
          <mxGeometry relative="1" as="geometry">
            <Array as="points">
              <mxPoint x="370" y="240" />
            </Array>
          </mxGeometry>
        </mxCell>
        <mxCell id="VB0gRTYkaDnp8AODcOtn-52" style="edgeStyle=orthogonalEdgeStyle;rounded=0;orthogonalLoop=1;jettySize=auto;html=1;entryX=1;entryY=1;entryDx=0;entryDy=0;endArrow=none;endFill=0;startArrow=classic;startFill=1;" edge="1" parent="1" source="VB0gRTYkaDnp8AODcOtn-33" target="VB0gRTYkaDnp8AODcOtn-34">
          <mxGeometry relative="1" as="geometry">
            <Array as="points">
              <mxPoint x="418" y="270" />
              <mxPoint x="418" y="270" />
            </Array>
          </mxGeometry>
        </mxCell>
        <mxCell id="VB0gRTYkaDnp8AODcOtn-33" value="zero par" style="ellipse;whiteSpace=wrap;html=1;" vertex="1" parent="1">
          <mxGeometry x="350" y="310" width="80" height="80" as="geometry" />
        </mxCell>
        <mxCell id="VB0gRTYkaDnp8AODcOtn-42" style="edgeStyle=orthogonalEdgeStyle;rounded=0;orthogonalLoop=1;jettySize=auto;html=1;entryX=0.5;entryY=0;entryDx=0;entryDy=0;" edge="1" parent="1" source="VB0gRTYkaDnp8AODcOtn-34" target="VB0gRTYkaDnp8AODcOtn-27">
          <mxGeometry relative="1" as="geometry" />
        </mxCell>
        <mxCell id="VB0gRTYkaDnp8AODcOtn-34" value="um impar" style="ellipse;whiteSpace=wrap;html=1;" vertex="1" parent="1">
          <mxGeometry x="350" y="90" width="80" height="80" as="geometry" />
        </mxCell>
        <mxCell id="VB0gRTYkaDnp8AODcOtn-37" value="0" style="text;html=1;align=center;verticalAlign=middle;resizable=0;points=[];autosize=1;strokeColor=none;fillColor=none;" vertex="1" parent="1">
          <mxGeometry x="245" y="228" width="30" height="30" as="geometry" />
        </mxCell>
        <mxCell id="VB0gRTYkaDnp8AODcOtn-39" value="1" style="text;html=1;align=center;verticalAlign=middle;resizable=0;points=[];autosize=1;strokeColor=none;fillColor=none;" vertex="1" parent="1">
          <mxGeometry x="230" y="100" width="30" height="30" as="geometry" />
        </mxCell>
        <mxCell id="VB0gRTYkaDnp8AODcOtn-40" value="zero impar" style="ellipse;whiteSpace=wrap;html=1;" vertex="1" parent="1">
          <mxGeometry x="552" y="310" width="65" height="60" as="geometry" />
        </mxCell>
        <mxCell id="VB0gRTYkaDnp8AODcOtn-58" style="edgeStyle=orthogonalEdgeStyle;rounded=0;orthogonalLoop=1;jettySize=auto;html=1;entryX=0.5;entryY=0;entryDx=0;entryDy=0;" edge="1" parent="1" source="VB0gRTYkaDnp8AODcOtn-41" target="VB0gRTYkaDnp8AODcOtn-29">
          <mxGeometry relative="1" as="geometry" />
        </mxCell>
        <mxCell id="VB0gRTYkaDnp8AODcOtn-41" value="um par" style="ellipse;whiteSpace=wrap;html=1;" vertex="1" parent="1">
          <mxGeometry x="552.5" y="160" width="65" height="60" as="geometry" />
        </mxCell>
        <mxCell id="VB0gRTYkaDnp8AODcOtn-43" value="1" style="text;html=1;align=center;verticalAlign=middle;resizable=0;points=[];autosize=1;strokeColor=none;fillColor=none;" vertex="1" parent="1">
          <mxGeometry x="430" y="100" width="30" height="30" as="geometry" />
        </mxCell>
        <mxCell id="VB0gRTYkaDnp8AODcOtn-45" value="0" style="text;html=1;align=center;verticalAlign=middle;resizable=0;points=[];autosize=1;strokeColor=none;fillColor=none;" vertex="1" parent="1">
          <mxGeometry x="420" y="160" width="30" height="30" as="geometry" />
        </mxCell>
        <mxCell id="VB0gRTYkaDnp8AODcOtn-47" value="0" style="text;html=1;align=center;verticalAlign=middle;resizable=0;points=[];autosize=1;strokeColor=none;fillColor=none;" vertex="1" parent="1">
          <mxGeometry x="435" y="348" width="30" height="30" as="geometry" />
        </mxCell>
        <mxCell id="VB0gRTYkaDnp8AODcOtn-53" value="1" style="text;html=1;align=center;verticalAlign=middle;resizable=0;points=[];autosize=1;strokeColor=none;fillColor=none;" vertex="1" parent="1">
          <mxGeometry x="340" y="290" width="30" height="30" as="geometry" />
        </mxCell>
        <mxCell id="VB0gRTYkaDnp8AODcOtn-55" value="0" style="text;html=1;align=center;verticalAlign=middle;resizable=0;points=[];autosize=1;strokeColor=none;fillColor=none;" vertex="1" parent="1">
          <mxGeometry x="515" y="318" width="30" height="30" as="geometry" />
        </mxCell>
        <mxCell id="VB0gRTYkaDnp8AODcOtn-57" value="1" style="text;html=1;align=center;verticalAlign=middle;resizable=0;points=[];autosize=1;strokeColor=none;fillColor=none;" vertex="1" parent="1">
          <mxGeometry x="605" y="278" width="30" height="30" as="geometry" />
        </mxCell>
        <mxCell id="VB0gRTYkaDnp8AODcOtn-59" value="0" style="text;html=1;align=center;verticalAlign=middle;resizable=0;points=[];autosize=1;strokeColor=none;fillColor=none;" vertex="1" parent="1">
          <mxGeometry x="560" y="228" width="30" height="30" as="geometry" />
        </mxCell>
        <mxCell id="VB0gRTYkaDnp8AODcOtn-61" value="1" style="text;html=1;align=center;verticalAlign=middle;resizable=0;points=[];autosize=1;strokeColor=none;fillColor=none;" vertex="1" parent="1">
          <mxGeometry x="522" y="160" width="30" height="30" as="geometry" />
        </mxCell>
      </root>
    </mxGraphModel>
  </diagram>
</mxfile>
